<?xml version="1.0" encoding="UTF-8" standalone="no"?>
<!-- Created with Inkscape (http://www.inkscape.org/) -->

<svg
   version="1.1"
   id="svg824"
   width="772.112"
   height="240.75426"
   viewBox="0 0 772.11199 240.75426"
   sodipodi:docname="symmetry_types.svg"
   inkscape:version="1.1 (c4e8f9e, 2021-05-24)"
   xmlns:inkscape="http://www.inkscape.org/namespaces/inkscape"
   xmlns:sodipodi="http://sodipodi.sourceforge.net/DTD/sodipodi-0.dtd"
   xmlns:xlink="http://www.w3.org/1999/xlink"
   xmlns="http://www.w3.org/2000/svg"
   xmlns:svg="http://www.w3.org/2000/svg">
  <defs
     id="defs828">
    <linearGradient
       inkscape:collect="always"
       id="linearGradient31786">
      <stop
         style="stop-color:#55babd;stop-opacity:1"
         offset="0"
         id="stop31782" />
      <stop
         style="stop-color:#08393a;stop-opacity:1"
         offset="1"
         id="stop31784" />
    </linearGradient>
    <linearGradient
       inkscape:collect="always"
       id="linearGradient1528">
      <stop
         style="stop-color:#008080;stop-opacity:1;"
         offset="0"
         id="stop1524" />
      <stop
         style="stop-color:#008080;stop-opacity:0;"
         offset="1"
         id="stop1526" />
    </linearGradient>
    <linearGradient
       inkscape:collect="always"
       xlink:href="#linearGradient1528"
       id="linearGradient1530"
       x1="-46.138416"
       y1="-21.76902"
       x2="-43.964607"
       y2="-131.31027"
       gradientUnits="userSpaceOnUse"
       gradientTransform="matrix(0.96772344,0,0,0.96749548,-172.35851,96.288094)" />
    <linearGradient
       inkscape:collect="always"
       xlink:href="#linearGradient1528"
       id="linearGradient1744"
       gradientUnits="userSpaceOnUse"
       x1="-46.138416"
       y1="-21.76902"
       x2="-43.964607"
       y2="-131.31027"
       gradientTransform="matrix(0.96772344,0,0,0.96749548,-102.7827,96.288094)" />
    <linearGradient
       inkscape:collect="always"
       xlink:href="#linearGradient1528"
       id="linearGradient1530-4"
       x1="-46.138416"
       y1="-21.76902"
       x2="-43.964607"
       y2="-131.31027"
       gradientUnits="userSpaceOnUse"
       gradientTransform="matrix(0.96772344,0,0,0.96749548,-15.423285,96.288094)" />
    <linearGradient
       inkscape:collect="always"
       xlink:href="#linearGradient1528"
       id="linearGradient2152"
       gradientUnits="userSpaceOnUse"
       gradientTransform="matrix(-0.96772344,0,0,0.96749548,-30.207038,96.288094)"
       x1="-46.138416"
       y1="-21.76902"
       x2="-43.964607"
       y2="-131.31027" />
    <linearGradient
       inkscape:collect="always"
       xlink:href="#linearGradient1528"
       id="linearGradient1530-4-9-0"
       x1="-46.138416"
       y1="-21.76902"
       x2="-43.964607"
       y2="-131.31027"
       gradientUnits="userSpaceOnUse"
       gradientTransform="matrix(0.96772344,0,0,0.96749548,298.44716,96.288094)" />
    <linearGradient
       inkscape:collect="always"
       xlink:href="#linearGradient1528"
       id="linearGradient2516"
       gradientUnits="userSpaceOnUse"
       gradientTransform="matrix(-0.96772344,0,0,0.96749548,283.66343,39.595233)"
       x1="-46.138416"
       y1="-21.76902"
       x2="-43.964607"
       y2="-131.31027" />
    <linearGradient
       inkscape:collect="always"
       xlink:href="#linearGradient1528"
       id="linearGradient1530-7"
       x1="-46.138416"
       y1="-21.76902"
       x2="-43.964607"
       y2="-131.31027"
       gradientUnits="userSpaceOnUse"
       gradientTransform="matrix(0.96772344,0,0,0.96749548,141.51195,96.288094)" />
    <linearGradient
       inkscape:collect="always"
       xlink:href="#linearGradient1528"
       id="linearGradient1744-9"
       gradientUnits="userSpaceOnUse"
       x1="-46.138416"
       y1="-21.76902"
       x2="-43.964607"
       y2="-131.31027"
       gradientTransform="matrix(-0.96772344,0,0,-0.96749548,126.73973,-58.330423)" />
    <clipPath
       id="clipPath11894"
       clipPathUnits="userSpaceOnUse">
      <path
         id="path11896"
         d="m 2469.9328,-976.32274 c -15.8713,-1.7008 -26.3371,16.574 -42.3885,10.5615 -28.3039,-2.4858 -58.4534,-2.3731 -85.3507,7.5977 -7.0615,2.9574 -14.1852,13.3944 -21.2354,4.2432 -12.0473,-11.878 -30.4054,-0.8224 -45.3443,-2.126 -26.3682,1.7704 -53.4947,4.558 -76.0623,19.6995 -14.6434,12.3936 -32.1053,-3.8952 -48.9205,1.1618 -23.9672,3.3694 -48.7474,10.685 -65.3018,29.2812 -10.1535,7.5664 -20.7581,16.4064 -34.1269,14.7569 -20.0741,4.5964 -41.1682,16.4728 -47.8321,37.124 -19.1806,5.0241 -38.2243,11.8243 -52.3535,26.3574 -11.4771,7.6142 -23.8462,16.9424 -30.3613,29.2676 0.093,9.8007 4.4414,22.0325 -6.8799,27.7539 -9.8124,9.2408 -26.1186,7.6356 -32.6074,21.1719 -19.038,26.1099 -31.5703,56.6776 -40.6934,87.3291 -17.9521,22.7301 -11.3244,53.7965 -14.9591,80.5563 0.8848,15.4913 -7.2861,36.2198 9.212,46.3724 13.5962,6.1482 24.1104,16.6116 30.7032,30.0586 14.5787,24.3057 29.7388,55.4848 61.0254,60.293 23.1037,8.3238 48.4839,15.9034 72.8564,8.7402 13.9966,3.6089 26.9264,11.5121 41.2695,14.5606 5.4667,4.4196 -5.6592,11.5404 -7.0068,16.1425 -16.527,15.1057 -18.5596,42.3398 -4.8584,59.8438 6.4217,12.839 5.0942,28.4161 13.7207,40.6494 5.0749,12.2263 18.4394,16.2477 30.6104,15.0635 3.7816,4.8601 -2.8281,13.5787 1.1767,19.6142 5.8373,17.3896 30.1775,18.2918 34.458,36.75786 6.4138,12.33945 23.5964,8.67852 35.0244,11.66015 6.8644,-0.13575 15.5261,-1.64228 16.2061,8.09082 12.9712,28.4955 50.2841,38.8148 77.3193,24.31153 32.4419,-12.34028 67.502,-18.2286 101.9603,-22.47913 24.5574,-0.45812 49.9618,-3.7291 74.07,1.43908 21.2909,17.05907 46.9854,31.7007 75.3906,28.3252 14.1537,1.59742 26.8601,-4.59753 40.2686,-6.82618 11.9265,-0.79902 25.8292,6.73453 33.1076,-6.82685 10.5333,-8.10867 20.3778,-22.47767 34.7684,-22.65557 9.86,5.70812 21.1534,7.19155 31.7138,10.15625 14.7779,10.33725 31.4365,18.31482 46.084,29.14062 18.8151,8.9524 38.1881,17.7471 58.2959,23.13478 13.5094,1.106 29.976,-3.58188 38.372,10.71532 12.9962,15.26973 34.1396,1.92233 48.8106,-3.31297 19.7545,-7.63535 44.1598,0.02 61.001,-16.07423 29.5278,-26.15502 48.5161,-65.26492 46.6553,-105.05368 10.3504,-29.9525 8.5789,-62.4846 16.0107,-93.2129 7.0783,-35.4626 -5.5123,-71.3279 -20.249,-103.0957 -1.542,-5.3291 -7.7195,-6.7391 -10.8691,-8.9453 10.9692,-23.4107 -1.8178,-49.021 -2.3838,-73.2967 -3.5881,-36.237 -9.3434,-73.9233 -30.4912,-104.4841 -14.798,-28.1243 -24.0145,-59.9906 -43.6582,-85.2515 -10.9729,-10.8371 -31.0091,-14.6711 -32.1631,-32.9004 -3.7576,-22.7509 -13.6201,-49.7315 -37.9395,-56.9238 -13.9677,-5.2152 -21.4589,-20.2805 -34.3269,-27.7583 -27.703,-21.2397 -55.0243,-43.157 -78.9739,-68.5649 -17.4629,-14.9719 -42.4588,-5.6496 -61.5918,-16.9629 -14.7646,-3.6703 -31.2798,-17.8648 -46.6162,-9.834 -7.0685,2.96 -6.1098,17.4216 -16.001,12.0654 -18.2689,-1.2088 -18.3914,-23.9031 -33.1982,-30.6543 -7.5633,-4.6255 -16.4867,-6.992 -25.3467,-6.7578 z"
         style="display:inline;fill:#00ff00;fill-opacity:1;stroke:none;stroke-width:25.0015" />
    </clipPath>
    <linearGradient
       inkscape:collect="always"
       xlink:href="#linearGradient31786"
       id="linearGradient17094"
       x1="-289.83005"
       y1="222.40765"
       x2="-290.38254"
       y2="296.39856"
       gradientUnits="userSpaceOnUse"
       gradientTransform="translate(0,-12.061095)" />
    <linearGradient
       inkscape:collect="always"
       xlink:href="#linearGradient31786"
       id="linearGradient39862"
       gradientUnits="userSpaceOnUse"
       gradientTransform="translate(-4.4999999e-6,113.30569)"
       x1="-289.83005"
       y1="222.40765"
       x2="-290.38254"
       y2="296.39856" />
    <linearGradient
       inkscape:collect="always"
       xlink:href="#linearGradient31786"
       id="linearGradient39997"
       gradientUnits="userSpaceOnUse"
       gradientTransform="translate(174.93584,-12.061099)"
       x1="-289.83005"
       y1="222.40765"
       x2="-290.38254"
       y2="296.39856" />
    <linearGradient
       inkscape:collect="always"
       xlink:href="#linearGradient31786"
       id="linearGradient39999"
       gradientUnits="userSpaceOnUse"
       gradientTransform="matrix(1,0,0,-1,174.93584,612.24486)"
       x1="-289.83005"
       y1="222.40765"
       x2="-290.38254"
       y2="296.39856" />
    <linearGradient
       inkscape:collect="always"
       xlink:href="#linearGradient31786"
       id="linearGradient40063"
       gradientUnits="userSpaceOnUse"
       gradientTransform="translate(346.1718,-12.061099)"
       x1="-289.83005"
       y1="222.40765"
       x2="-290.38254"
       y2="296.39856" />
    <linearGradient
       inkscape:collect="always"
       xlink:href="#linearGradient31786"
       id="linearGradient40065"
       gradientUnits="userSpaceOnUse"
       gradientTransform="rotate(180,-121.11779,306.13277)"
       x1="-289.83005"
       y1="222.40765"
       x2="-290.38254"
       y2="296.39856" />
    <linearGradient
       inkscape:collect="always"
       xlink:href="#linearGradient31786"
       id="linearGradient40126"
       gradientUnits="userSpaceOnUse"
       gradientTransform="translate(518.40383,-12.061099)"
       x1="-289.83005"
       y1="222.40765"
       x2="-290.38254"
       y2="296.39856" />
    <linearGradient
       inkscape:collect="always"
       xlink:href="#linearGradient31786"
       id="linearGradient40128"
       gradientUnits="userSpaceOnUse"
       gradientTransform="matrix(1,0,0,-1,598.40383,612.24486)"
       x1="-289.83005"
       y1="222.40765"
       x2="-290.38254"
       y2="296.39856" />
  </defs>
  <sodipodi:namedview
     id="namedview826"
     pagecolor="#ffffff"
     bordercolor="#666666"
     borderopacity="1.0"
     inkscape:pageshadow="2"
     inkscape:pageopacity="0.0"
     inkscape:pagecheckerboard="0"
     showgrid="false"
     inkscape:zoom="0.81"
     inkscape:cx="185.80247"
     inkscape:cy="95.679012"
     inkscape:window-width="1920"
     inkscape:window-height="1035"
     inkscape:window-x="1680"
     inkscape:window-y="23"
     inkscape:window-maximized="1"
     inkscape:current-layer="g830" />
  <g
     inkscape:groupmode="layer"
     inkscape:label="Image"
     id="g830"
     transform="translate(371.05655,-179.72509)">
    <path
       style="fill:url(#linearGradient1530);fill-opacity:1;stroke:#000000;stroke-width:0.999995"
       d="m -247.75984,74.421099 -0.8602,-0.859997 V 53.781198 34.001286 h 2.46718 2.46718 l 0.85414,5.05446 0.85416,5.054455 4.09788,6.825197 4.09788,6.825187 5.53803,4.210163 5.53802,4.210163 5.33777,1.436972 5.33776,1.436973 5.82031,-0.872603 5.82031,-0.872604 4.27125,-4.270244 4.27124,-4.270235 v -5.285254 -5.285263 l -4.50622,-4.986675 -4.50623,-4.986674 -15.73166,-8.23948 -15.73165,-8.23948 -6.18759,-6.163271 -6.1876,-6.1632712 -2.06646,-7.1067061 -2.06646,-7.1067042 0.90515,-5.4349345 c 0.49783,-2.989213 1.96263,-7.521639 3.25511,-10.072054 l 2.34995,-4.637119 4.45642,-3.911855 4.4564,-3.911855 5.92941,-2.26393 5.9294,-2.26393 9.36725,0.611516 9.36724,0.611525 5.58182,2.860139 5.58181,2.860149 3.45027,-0.398725 3.45028,-0.398724 0.41231,-2.902486 0.41232,-2.902487 h 1.8457 1.84571 v 18.059909 18.05991919 h -1.93544 -1.93545 l -0.0284,-2.25748619 c -0.13664,-10.886994 -13.27829,-24.387156 -26.0761,-26.787473 l -4.69449,-0.880489 -4.41041,1.45523 -4.4104,1.455219 -2.59223,2.865045 c -1.42573,1.575779 -2.93226,4.26264 -3.34786,5.970801 l -0.75562,3.105748 1.7871,4.276117 1.7871,4.2761171 6.85478,4.3761465 c 3.77013,2.40686757 10.62891,6.2410202 15.24172,8.5203264 4.61281,2.2793052 12.0159,6.561798 16.45129,9.516647 l 8.06437,5.372456 v 21.990082 21.990089 l -6.77406,4.042051 c -8.15651,4.866947 -14.91518,6.815396 -23.54795,6.788616 l -6.45148,-0.02003 -9.03209,-3.192155 c -4.96764,-1.755666 -9.94698,-3.19467 -11.06519,-3.197766 l -2.0331,-0.0058 -3.03044,3.224991 c -3.16888,3.372322 -4.16309,3.792854 -5.59128,2.364985 z"
       id="path1250-1" />
    <path
       style="fill:url(#linearGradient1744);fill-opacity:1;stroke:#000000;stroke-width:0.999995"
       d="m -178.18403,74.421092 -0.8602,-0.859997 V 53.781192 34.00128 h 2.46718 2.46718 l 0.85414,5.054459 0.85415,5.054455 4.09789,6.825197 4.09788,6.825187 5.53803,4.210163 5.53802,4.210163 5.33777,1.436973 5.33776,1.436972 5.82031,-0.872603 5.82031,-0.872604 4.27125,-4.270244 4.27124,-4.270235 v -5.285254 -5.285263 l -4.50623,-4.986675 -4.50622,-4.986674 -15.73166,-8.23948 -15.73165,-8.239479 -6.1876,-6.163272 -6.18759,-6.163271 -2.06647,-7.106709 -2.06645,-7.1066945 0.90515,-5.4349345 c 0.49783,-2.989213 1.96263,-7.521639 3.25511,-10.072054 l 2.34995,-4.637119 4.45641,-3.911855 4.45641,-3.911855 5.92941,-2.26393 5.9294,-2.26393 9.36724,0.611516 9.36725,0.611525 5.58182,2.860139 5.58181,2.860149 3.45027,-0.398725 3.45027,-0.398724 0.41232,-2.902486 0.41232,-2.902487 h 1.8457 1.84571 v 18.059909 18.05990952 h -1.93545 -1.93545 l -0.0283,-2.25748622 c -0.13664,-10.8869843 -13.2783,-24.3871463 -26.0761,-26.7874633 l -4.6945,-0.880489 -4.4104,1.45523 -4.4104,1.455219 -2.59224,2.865045 c -1.42572,1.575779 -2.93226,4.26264 -3.34785,5.970801 l -0.75562,3.105748 1.78709,4.276117 1.78711,4.2761171 6.85478,4.3761369 c 3.77012,2.40686749 10.6289,6.2410279 15.24171,8.5203311 4.61282,2.2793033 12.0159,6.5617959 16.4513,9.5166459 l 8.06437,5.372456 v 21.990081 21.990089 l -6.77407,4.042051 c -8.1565,4.866947 -14.91518,6.815396 -23.54794,6.788616 l -6.45148,-0.02003 -9.03209,-3.192155 c -4.96765,-1.755665 -9.94698,-3.19467 -11.0652,-3.197766 l -2.0331,-0.0058 -3.03043,3.224992 c -3.16888,3.372321 -4.16309,3.792853 -5.59128,2.364984 z"
       id="path1250-1-0" />
    <path
       style="fill:url(#linearGradient1530-7);fill-opacity:1;stroke:#000000;stroke-width:0.999995"
       d="m 66.110619,74.421099 -0.8602,-0.859997 V 53.781198 34.001286 h 2.467182 2.467182 l 0.854142,5.05446 0.854151,5.054455 4.097883,6.825197 4.097883,6.825187 5.53803,4.210163 5.53802,4.210163 5.337769,1.436972 5.337759,1.436973 5.82031,-0.872603 5.82031,-0.872604 4.27125,-4.270244 4.27124,-4.270235 v -5.285254 -5.285263 l -4.50622,-4.986675 -4.50623,-4.986674 -15.731657,-8.23948 -15.731651,-8.23948 -6.187594,-6.163271 -6.187595,-6.1632712 -2.066467,-7.1067061 -2.066457,-7.1067042 0.90515,-5.4349345 c 0.497836,-2.989213 1.96263,-7.521639 3.255112,-10.072054 l 2.349952,-4.637119 4.456415,-3.911855 4.456405,-3.911855 5.929406,-2.26393 5.929406,-2.26393 9.367245,0.611516 9.36724,0.611525 5.58182,2.860139 5.58181,2.860149 3.45027,-0.398725 3.45028,-0.398724 0.41231,-2.902486 0.41232,-2.902487 h 1.8457 1.84571 v 18.059909 18.05991919 h -1.93544 -1.93545 l -0.0284,-2.25748619 c -0.13664,-10.886994 -13.27829,-24.387156 -26.0761,-26.787473 l -4.694492,-0.880489 -4.410409,1.45523 -4.4104,1.455219 -2.592231,2.865045 c -1.425727,1.575779 -2.93226,4.26264 -3.347858,5.970801 l -0.755618,3.105748 1.787095,4.276117 1.787104,4.2761171 6.854782,4.3761465 c 3.770125,2.40686757 10.628907,6.2410202 15.241717,8.5203264 4.61281,2.2793052 12.0159,6.561798 16.45129,9.516647 l 8.06437,5.372456 v 21.990082 21.990089 l -6.77406,4.042051 c -8.15651,4.866947 -14.91518,6.815396 -23.54795,6.788616 L 96.862721,75.226665 87.83063,72.03451 C 82.862986,70.278844 77.883652,68.83984 76.765438,68.836744 l -2.0331,-0.0058 -3.030436,3.224991 c -3.168878,3.372322 -4.163088,3.792854 -5.591283,2.364985 z"
       id="path1250-1-9" />
    <path
       style="fill:url(#linearGradient1744-9);fill-opacity:1;stroke:#000000;stroke-width:0.999995"
       d="m 202.14106,-36.463421 0.8602,0.859997 v 19.779903 19.779912 h -2.46718 -2.46718 l -0.85414,-5.054459 -0.85415,-5.054455 -4.09789,-6.825197 -4.09788,-6.825187 -5.53803,-4.210163 -5.53802,-4.210163 -5.33777,-1.436973 -5.33776,-1.436972 -5.82031,0.872603 -5.82031,0.872604 -4.27125,4.270244 -4.27124,4.270235 v 5.285254 5.285263 l 4.50623,4.986675 4.50622,4.98667402 15.73166,8.23947998 15.73165,8.239479 6.1876,6.163272 6.18759,6.163271 2.06647,7.106709 2.06645,7.106695 -0.90515,5.434934 c -0.49783,2.989213 -1.96263,7.521639 -3.25511,10.072054 l -2.34995,4.637119 -4.45641,3.911855 -4.45641,3.911855 -5.92941,2.26393 -5.9294,2.26393 -9.36724,-0.611516 -9.36725,-0.611525 -5.58182,-2.860139 -5.58181,-2.860149 -3.45027,0.398725 -3.45027,0.398724 -0.41232,2.902486 -0.41232,2.902487 h -1.8457 -1.84571 V 56.846141 38.786231 h 1.93545 1.93545 l 0.0283,2.257487 c 0.13669,10.886984 13.27835,24.387146 26.07615,26.787463 l 4.6945,0.880489 4.4104,-1.45523 4.4104,-1.455219 2.59224,-2.865045 c 1.42572,-1.575779 2.93226,-4.26264 3.34785,-5.970801 l 0.75562,-3.105748 -1.78709,-4.276117 -1.78711,-4.276117 -6.85478,-4.376137 c -3.77012,-2.406867 -10.6289,-6.241028 -15.24171,-8.520331 -4.61282,-2.279303 -12.0159,-6.561796 -16.4513,-9.516646 l -8.06437,-5.372456 V -4.468258 -26.458347 l 6.77407,-4.042051 c 8.1565,-4.866947 14.91518,-6.815396 23.54794,-6.788616 l 6.45148,0.02003 9.03209,3.192155 c 4.96765,1.755665 9.94698,3.19467 11.0652,3.197766 l 2.0331,0.0058 3.03043,-3.224992 c 3.16888,-3.372321 4.16309,-3.792853 5.59128,-2.364984 z"
       id="path1250-1-0-57" />
    <path
       style="fill:url(#linearGradient1530-4);fill-opacity:1;stroke:#000000;stroke-width:0.999995"
       d="m -90.824616,74.421099 -0.860199,-0.859997 V 53.781198 34.001286 h 2.467181 2.467182 l 0.854142,5.05446 0.854152,5.054455 4.097882,6.825196 4.097883,6.825188 5.53803,4.210163 5.53802,4.210163 5.337769,1.436972 5.337759,1.436973 5.820315,-0.872604 5.820305,-0.872603 4.27125,-4.270245 4.271241,-4.270234 v -5.285254 -5.285263 l -4.506223,-4.986675 -4.506224,-4.986674 -15.73166,-8.23948 -15.731651,-8.23948 -6.187595,-6.163271 -6.187595,-6.1632714 -2.066467,-7.1067061 -2.066457,-7.1067042 0.905151,-5.4349353 c 0.497835,-2.989212 1.96263,-7.521638 3.255112,-10.072053 l 2.349951,-4.637119 4.456415,-3.911855 4.456405,-3.911855 5.929406,-2.26393 5.929406,-2.26393 9.367244,0.611515 9.367244,0.611525 5.581819,2.86014 5.581809,2.860148 3.450273,-0.398724 3.450273,-0.398724 0.412318,-2.902487 0.412317,-2.902486 h 1.845701 1.845709 v 18.059909 18.05991902 h -1.935446 -1.935447 L -27.19827,-3.0860372 C -27.334913,-13.973032 -40.476568,-27.473193 -53.274372,-29.87351 l -4.694494,-0.880489 -4.410409,1.455229 -4.4104,1.45522 -2.592231,2.865044 c -1.425728,1.57578 -2.93226,4.26264 -3.347859,5.970802 l -0.755618,3.105748 1.787095,4.276117 1.787105,4.2761169 6.854782,4.3761466 c 3.770124,2.4068675 10.628903,6.2410202 15.241712,8.5203263 4.612818,2.2793052 12.015902,6.5617982 16.451298,9.5166472 l 8.064368,5.372456 v 21.990082 21.990089 l -6.774063,4.042051 c -8.156506,4.866947 -14.915183,6.815396 -23.547944,6.788616 l -6.451483,-0.02003 -9.032092,-3.192154 c -4.967644,-1.755666 -9.946978,-3.19467 -11.065192,-3.197766 l -2.0331,-0.0058 -3.030435,3.224991 c -3.168878,3.372322 -4.163088,3.792853 -5.591284,2.364985 z"
       id="path1250-1-4" />
    <path
       style="fill:url(#linearGradient2152);fill-opacity:1;stroke:#000000;stroke-width:0.999995"
       d="m 45.194293,74.421092 0.8602,-0.859997 V 53.781192 34.00128 h -2.467182 -2.467182 l -0.854141,5.054459 -0.854152,5.054455 -4.097883,6.825197 -4.097883,6.825187 -5.538029,4.210163 -5.53802,4.210163 -5.337769,1.436973 -5.3377596,1.436972 -5.8203146,-0.872603 -5.8203047,-0.872604 -4.2712506,-4.270244 -4.2712405,-4.270235 v -5.285254 -5.285263 l 4.5062231,-4.986675 4.5062235,-4.986674 15.7316604,-8.23948 15.731651,-8.23948 6.187595,-6.163271 6.187594,-6.1632711 2.066467,-7.1067091 2.066458,-7.1066945 -0.905151,-5.4349353 c -0.497836,-2.989212 -1.96263,-7.521638 -3.255112,-10.072053 l -2.349952,-4.637119 -4.456415,-3.911855 -4.456405,-3.911855 -5.929406,-2.26393 -5.929406,-2.26393 -9.3672433,0.611515 -9.3672434,0.611525 -5.5818191,2.86014 -5.5818092,2.860148 -3.450273,-0.398724 -3.450273,-0.398724 -0.412318,-2.902487 -0.412318,-2.902486 h -1.8457 -1.84571 v 18.059909 18.05990935 h 1.935447 1.935447 l 0.02835,-2.25748625 C -18.295409,-13.973032 -5.1537539,-27.473193 7.6440497,-29.87351 l 4.6944943,-0.880489 4.410409,1.455229 4.4104,1.45522 2.592231,2.865044 c 1.425727,1.57578 2.93226,4.26264 3.347858,5.970802 l 0.755618,3.105748 -1.787095,4.276117 -1.787104,4.2761169 -6.854782,4.3761369 C 13.655954,-0.56671768 6.7971756,3.2674427 2.184367,5.546746 -2.4284511,7.8260492 -9.8315354,12.108542 -14.266931,15.063391 l -8.064369,5.372456 v 21.990082 21.990089 l 6.774064,4.042051 c 8.1565057,4.866947 14.91518301,6.815396 23.5479436,6.788616 l 6.4514834,-0.02003 9.032092,-3.192155 c 4.967643,-1.755666 9.946977,-3.19467 11.065191,-3.197766 l 2.0331,-0.0058 3.030436,3.224991 c 3.168878,3.372322 4.163088,3.792854 5.591283,2.364985 z"
       id="path1250-1-0-5" />
    <path
       style="fill:url(#linearGradient1530-4-9-0);fill-opacity:1;stroke:#000000;stroke-width:0.999995"
       d="m 223.04583,74.421099 -0.8602,-0.859997 V 53.781198 34.001286 h 2.46718 2.46718 l 0.85415,5.05446 0.85415,5.054455 4.09788,6.825196 4.09788,6.825188 5.53803,4.210163 5.53802,4.210163 5.33777,1.436972 5.33776,1.436973 5.82031,-0.872604 5.82031,-0.872603 4.27125,-4.270245 4.27124,-4.270234 v -5.285254 -5.285263 l -4.50622,-4.986675 -4.50623,-4.986674 -15.73166,-8.23948 -15.73165,-8.23948 -6.18759,-6.163271 -6.1876,-6.1632714 -2.06646,-7.1067061 -2.06646,-7.1067042 0.90515,-5.4349353 c 0.49784,-2.989212 1.96263,-7.521638 3.25511,-10.072053 l 2.34995,-4.637119 4.45642,-3.911855 4.4564,-3.911855 5.92941,-2.26393 5.92941,-2.26393 9.36724,0.611515 9.36724,0.611525 5.58182,2.86014 5.58181,2.860148 3.45027,-0.398724 3.45028,-0.398724 0.41231,-2.902487 0.41232,-2.902486 h 1.8457 1.84571 v 18.059909 18.05991902 h -1.93544 -1.93545 l -0.0284,-2.25748622 C 286.53553,-13.973032 273.39388,-27.473193 260.59607,-29.87351 l -4.69449,-0.880489 -4.41041,1.455229 -4.4104,1.45522 -2.59223,2.865044 c -1.42573,1.57578 -2.93226,4.26264 -3.34786,5.970802 l -0.75562,3.105748 1.7871,4.276117 1.7871,4.2761169 6.85478,4.3761466 c 3.77013,2.4068675 10.62891,6.2410202 15.24172,8.5203263 4.61281,2.2793052 12.0159,6.5617982 16.45129,9.5166472 l 8.06437,5.372456 v 21.990082 21.990089 l -6.77406,4.042051 c -8.15651,4.866947 -14.91518,6.815396 -23.54794,6.788616 l -6.45149,-0.02003 -9.03209,-3.192154 c -4.96764,-1.755666 -9.94698,-3.19467 -11.06519,-3.197766 l -2.0331,-0.0058 -3.03044,3.224991 c -3.16888,3.372322 -4.16309,3.792853 -5.59128,2.364985 z"
       id="path1250-1-4-6-0" />
    <path
       style="fill:url(#linearGradient2516);fill-opacity:1;stroke:#000000;stroke-width:0.999995"
       d="m 359.06475,17.728231 0.8602,-0.859997 V -2.9116691 -22.691581 h -2.46718 -2.46719 l -0.85414,5.054459 -0.85415,5.054455 -4.09788,6.8251969 -4.09788,6.825187 -5.53803,4.210163 -5.53802,4.210163 -5.33777,1.4369731 -5.33776,1.436972 -5.82032,-0.872603 -5.8203,-0.872604 -4.27125,-4.2702441 -4.27124,-4.270235 v -5.285254 -5.285263 l 4.50622,-4.9866749 4.50622,-4.986674 15.73166,-8.23948 15.73166,-8.23948 6.18759,-6.163271 6.1876,-6.163271 2.06646,-7.106709 2.06646,-7.106695 -0.90515,-5.434939 c -0.49784,-2.989213 -1.96263,-7.521639 -3.25511,-10.072044 l -2.34996,-4.637129 -4.45641,-3.911855 -4.45641,-3.911845 -5.9294,-2.26393 -5.92941,-2.26393 -9.36724,0.611506 -9.36724,0.611525 -5.58182,2.860148 -5.58181,2.86014 -3.45028,-0.398725 -3.45027,-0.398724 -0.41232,-2.902486 -0.41231,-2.902487 h -1.8457 -1.84571 v 18.059909 18.059914 h 1.93544 1.93545 l 0.0283,-2.257486 c 0.13665,-10.886989 13.2783,-24.387141 26.07611,-26.787458 l 4.69449,-0.880489 4.41041,1.455229 4.4104,1.45522 2.59223,2.865035 c 1.42573,1.575779 2.93226,4.26264 3.34786,5.970801 l 0.75562,3.105748 -1.7871,4.276117 -1.7871,4.276117 -6.85479,4.376142 c -3.77012,2.406867 -10.6289,6.241028 -15.24171,8.520331 -4.61282,2.279303 -12.0159,6.561796 -16.4513,9.516645 l -8.06436,5.372456 v 21.990082 21.9900889 l 6.77406,4.0420511 c 8.15651,4.866947 14.91518,6.815396 23.54794,6.788616 l 6.45149,-0.02003 9.03209,-3.192155 c 4.96764,-1.755666 9.94698,-3.19467 11.06519,-3.197766 l 2.0331,-0.0058 3.03044,3.224991 c 3.16887,3.372322 4.16308,3.792854 5.59128,2.364985 z"
       id="path1250-1-0-5-5-2" />
    <text
       xml:space="preserve"
       style="font-size:24px;line-height:1.25;font-family:Helvetica;-inkscape-font-specification:Helvetica"
       x="-183.95062"
       y="-55.555561"
       id="text3751"><tspan
         sodipodi:role="line"
         id="tspan3749"
         x="-183.95062"
         y="-55.555561">a</tspan></text>
    <text
       xml:space="preserve"
       style="font-size:24px;line-height:1.25;font-family:Helvetica;-inkscape-font-specification:Helvetica"
       x="-29.118708"
       y="-45.635056"
       id="text3751-7"><tspan
         sodipodi:role="line"
         id="tspan3749-8"
         x="-29.118708"
         y="-45.635056">b</tspan></text>
    <text
       xml:space="preserve"
       style="font-size:24px;line-height:1.25;font-family:Helvetica;-inkscape-font-specification:Helvetica"
       x="126.43685"
       y="-43.16592"
       id="text3751-7-6"><tspan
         sodipodi:role="line"
         id="tspan3749-8-2"
         x="126.43685"
         y="-43.16592">c</tspan></text>
    <text
       xml:space="preserve"
       style="font-size:24px;line-height:1.25;font-family:Helvetica;-inkscape-font-specification:Helvetica"
       x="275.81955"
       y="-43.16592"
       id="text3751-7-6-7"><tspan
         sodipodi:role="line"
         id="tspan3749-8-2-3"
         x="275.81955"
         y="-43.16592">d</tspan></text>
    <image
       width="769"
       height="188"
       preserveAspectRatio="none"
       style="image-rendering:optimizeQuality"
       xlink:href="Screen%20Shot%202022-03-31%20at%204.34.56%20PM.png"
       id="image9548"
       x="-628.94446"
       y="-348.32098" />
    <g
       id="g40169"
       inkscape:export-filename="/Users/kohler/Desktop/g40169.png"
       inkscape:export-xdpi="300"
       inkscape:export-ydpi="300">
      <text
         xml:space="preserve"
         style="font-size:24px;line-height:1.25;font-family:Helvetica;-inkscape-font-specification:Helvetica"
         x="-372.01749"
         y="302.67001"
         id="text3751-1"><tspan
           sodipodi:role="line"
           id="tspan3749-80"
           x="-372.01749"
           y="302.67001">a</tspan></text>
      <path
         id="path11896-1-8"
         d="m -282.71686,180.7411 c -2.1469,-0.23006 -3.5626,2.24195 -5.73385,1.42865 -3.82864,-0.33625 -7.90693,-0.32101 -11.5453,1.02773 -0.95521,0.40005 -1.91882,1.81185 -2.87249,0.57398 -1.62963,-1.60673 -4.11291,-0.11125 -6.13368,-0.28759 -3.5668,0.23948 -7.23618,0.61656 -10.28887,2.66474 -1.9808,1.67647 -4.34286,-0.5269 -6.61743,0.15715 -3.24202,0.45578 -6.59401,1.44535 -8.83331,3.96084 -1.37345,1.0235 -2.80793,2.21927 -4.61631,1.99615 -2.7154,0.62175 -5.56878,2.22826 -6.4702,5.02173 -2.59454,0.6796 -5.17056,1.59945 -7.08181,3.56533 -1.55249,1.02997 -3.22565,2.29179 -4.10694,3.959 0.0126,1.32573 0.60078,2.98032 -0.93064,3.75424 -1.32731,1.25 -3.53303,1.03287 -4.41077,2.8639 -2.57525,3.53187 -4.27048,7.66673 -5.50455,11.81293 -2.42836,3.07468 -1.53184,7.27699 -2.0235,10.89676 0.11968,2.0955 -0.98558,4.89942 1.24609,6.27275 1.83915,0.83166 3.26139,2.24704 4.1532,4.066 1.97204,3.28781 4.02273,7.50538 8.25484,8.15577 3.12522,1.12595 6.55837,2.15124 9.85521,1.18228 1.89331,0.48817 3.64231,1.55723 5.58249,1.9696 0.73947,0.59783 -0.76552,1.56106 -0.94781,2.18357 -2.23559,2.04334 -2.51054,5.72727 -0.65719,8.09502 0.86866,1.73671 0.68909,3.84381 1.85599,5.4986 0.68647,1.65384 2.49428,2.19781 4.14063,2.03762 0.51154,0.65742 -0.38255,1.83678 0.15918,2.6532 0.7896,2.35227 4.08208,2.47431 4.66109,4.9722 0.86759,1.66914 3.19187,1.17393 4.73772,1.57725 0.92854,-0.0183 2.1002,-0.22215 2.19218,1.09444 1.75461,3.85456 6.80188,5.25044 10.4589,3.2886 4.38839,-1.66926 9.13093,-2.46577 13.79207,-3.04073 3.32186,-0.062 6.75829,-0.50443 10.01937,0.19466 2.88,2.30756 6.35567,4.28812 10.19802,3.83152 1.91455,0.21608 3.63334,-0.6219 5.44709,-0.92337 1.61328,-0.10808 3.49389,0.91097 4.47843,-0.92346 1.42484,-1.09685 2.75649,-3.04053 4.70309,-3.0646 1.33375,0.77213 2.8614,0.9728 4.28989,1.37383 1.999,1.39831 4.25239,2.47744 6.23374,3.94182 2.5451,1.21098 5.16566,2.40063 7.88562,3.12942 1.82741,0.14961 4.05483,-0.48452 5.19055,1.44945 1.75798,2.06552 4.61802,0.26003 6.60256,-0.44814 2.67217,-1.03283 5.97345,0.003 8.25154,-2.17435 3.9942,-3.53796 6.56273,-8.82832 6.31102,-14.2105 1.40009,-4.05165 1.16046,-8.45223 2.16575,-12.60882 0.95747,-4.79699 -0.74564,-9.64845 -2.73906,-13.94565 -0.20858,-0.72086 -1.04422,-0.91159 -1.47026,-1.21002 1.4838,-3.16674 -0.24589,-6.63102 -0.32245,-9.91477 -0.48536,-4.90173 -1.26387,-9.99953 -4.12452,-14.13345 -2.00171,-3.80434 -3.24841,-8.11486 -5.9056,-11.53188 -1.48429,-1.46593 -4.19456,-1.98456 -4.35067,-4.45041 -0.50828,-3.0775 -1.84237,-6.72713 -5.13204,-7.70002 -1.88939,-0.70546 -2.90271,-2.74333 -4.64336,-3.75484 -3.74735,-2.87308 -7.44308,-5.83781 -10.68272,-9.2747 -2.36218,-2.02524 -5.74335,-0.76422 -8.33145,-2.29456 -1.9972,-0.49647 -4.23119,-2.41655 -6.30573,-1.33023 -0.95615,0.40039 -0.82647,2.3566 -2.16444,1.63207 -2.47122,-0.16351 -2.48779,-3.23335 -4.49069,-4.14657 -1.02308,-0.62569 -2.23014,-0.9458 -3.42862,-0.91414 z"
         style="display:inline;fill:url(#linearGradient17094);fill-opacity:1;stroke:#000000;stroke-width:2;stroke-miterlimit:4;stroke-dasharray:none" />
      <path
         id="path11896-1-8-2"
         d="m -282.71686,306.10789 c -2.1469,-0.23006 -3.5626,2.24195 -5.73385,1.42865 -3.82864,-0.33625 -7.90693,-0.32101 -11.5453,1.02773 -0.95521,0.40005 -1.91882,1.81185 -2.87249,0.57398 -1.62963,-1.60673 -4.11291,-0.11125 -6.13368,-0.28759 -3.5668,0.23948 -7.23618,0.61656 -10.28887,2.66474 -1.9808,1.67647 -4.34286,-0.5269 -6.61743,0.15715 -3.24202,0.45578 -6.59401,1.44535 -8.83331,3.96084 -1.37345,1.0235 -2.80793,2.21927 -4.61631,1.99615 -2.7154,0.62175 -5.56878,2.22826 -6.4702,5.02173 -2.59454,0.6796 -5.17056,1.59945 -7.08181,3.56533 -1.55249,1.02997 -3.22565,2.29179 -4.10694,3.959 0.0126,1.32573 0.60078,2.98032 -0.93064,3.75424 -1.32731,1.25 -3.53303,1.03287 -4.41077,2.8639 -2.57525,3.53187 -4.27048,7.66673 -5.50455,11.81293 -2.42836,3.07468 -1.53184,7.27699 -2.0235,10.89676 0.11968,2.0955 -0.98558,4.89942 1.24609,6.27275 1.83915,0.83166 3.26139,2.24704 4.1532,4.066 1.97204,3.28781 4.02273,7.50538 8.25484,8.15577 3.12522,1.12595 6.55837,2.15124 9.85521,1.18228 1.89331,0.48817 3.64231,1.55723 5.58249,1.9696 0.73947,0.59783 -0.76552,1.56106 -0.94781,2.18357 -2.23559,2.04334 -2.51054,5.72727 -0.65719,8.09502 0.86866,1.73671 0.68909,3.84381 1.85599,5.4986 0.68647,1.65384 2.49428,2.19781 4.14063,2.03762 0.51154,0.65742 -0.38255,1.83678 0.15918,2.6532 0.7896,2.35227 4.08208,2.47431 4.66109,4.9722 0.86759,1.66914 3.19187,1.17393 4.73772,1.57725 0.92854,-0.0183 2.1002,-0.22215 2.19218,1.09444 1.75461,3.85456 6.80188,5.25044 10.4589,3.2886 4.38839,-1.66926 9.13093,-2.46577 13.79207,-3.04073 3.32186,-0.062 6.75829,-0.50443 10.01937,0.19466 2.88,2.30756 6.35567,4.28812 10.19802,3.83152 1.91455,0.21608 3.63334,-0.6219 5.44709,-0.92337 1.61328,-0.10808 3.49389,0.91097 4.47843,-0.92346 1.42484,-1.09685 2.75649,-3.04053 4.70309,-3.0646 1.33375,0.77213 2.8614,0.9728 4.28989,1.37383 1.999,1.39831 4.25239,2.47744 6.23374,3.94182 2.5451,1.21098 5.16566,2.40063 7.88562,3.12942 1.82741,0.14961 4.05483,-0.48452 5.19055,1.44945 1.75798,2.06552 4.61802,0.26003 6.60256,-0.44814 2.67217,-1.03283 5.97345,0.003 8.25154,-2.17435 3.9942,-3.53796 6.56273,-8.82832 6.31102,-14.2105 1.40009,-4.05165 1.16046,-8.45223 2.16575,-12.60882 0.95747,-4.79699 -0.74564,-9.64845 -2.73906,-13.94565 -0.20858,-0.72086 -1.04422,-0.91159 -1.47026,-1.21002 1.4838,-3.16674 -0.24589,-6.63102 -0.32245,-9.91477 -0.48536,-4.90173 -1.26387,-9.99953 -4.12452,-14.13345 -2.00171,-3.80434 -3.24841,-8.11486 -5.9056,-11.53188 -1.48429,-1.46593 -4.19456,-1.98456 -4.35067,-4.45041 -0.50828,-3.0775 -1.84237,-6.72713 -5.13204,-7.70002 -1.88939,-0.70546 -2.90271,-2.74333 -4.64336,-3.75484 -3.74735,-2.87308 -7.44308,-5.83781 -10.68272,-9.2747 -2.36218,-2.02524 -5.74335,-0.76422 -8.33145,-2.29456 -1.9972,-0.49647 -4.23119,-2.41655 -6.30573,-1.33023 -0.95615,0.40039 -0.82647,2.3566 -2.16444,1.63207 -2.47122,-0.16351 -2.48779,-3.23335 -4.49069,-4.14657 -1.02308,-0.62569 -2.23014,-0.9458 -3.42862,-0.91414 z"
         style="display:inline;fill:url(#linearGradient39862);fill-opacity:1;stroke:#000000;stroke-width:2;stroke-miterlimit:4;stroke-dasharray:none" />
    </g>
    <g
       id="g40163"
       transform="translate(4.5321105)"
       inkscape:export-filename="/Users/kohler/Desktop/g40169.png"
       inkscape:export-xdpi="300"
       inkscape:export-ydpi="300">
      <path
         id="path11896-1-8-4"
         d="m -107.78101,180.7411 c -2.1469,-0.23006 -3.5626,2.24195 -5.73385,1.42865 -3.82865,-0.33625 -7.90693,-0.32101 -11.5453,1.02773 -0.95522,0.40005 -1.91882,1.81185 -2.8725,0.57398 -1.62963,-1.60673 -4.1129,-0.11125 -6.13367,-0.28759 -3.5668,0.23948 -7.23619,0.61656 -10.28887,2.66474 -1.9808,1.67647 -4.34285,-0.5269 -6.61744,0.15715 -3.24201,0.45578 -6.59401,1.44535 -8.8333,3.96084 -1.37345,1.0235 -2.80793,2.21927 -4.61631,1.99615 -2.7154,0.62175 -5.56878,2.22826 -6.47019,5.02173 -2.59454,0.6796 -5.17057,1.59945 -7.08182,3.56533 -1.55248,1.02997 -3.22564,2.29179 -4.10694,3.959 0.0126,1.32573 0.60077,2.98032 -0.93065,3.75424 -1.32731,1.25 -3.53303,1.03287 -4.41077,2.8639 -2.57525,3.53187 -4.27048,7.66673 -5.50455,11.81293 -2.42836,3.07468 -1.53184,7.27699 -2.0235,10.89676 0.11968,2.0955 -0.98558,4.89942 1.24609,6.27275 1.83915,0.83166 3.26139,2.24704 4.1532,4.066 1.97204,3.28781 4.02274,7.50538 8.25484,8.15577 3.12522,1.12595 6.55838,2.15124 9.85521,1.18228 1.89331,0.48817 3.64231,1.55723 5.58249,1.9696 0.73947,0.59783 -0.76551,1.56106 -0.94781,2.18357 -2.23559,2.04334 -2.51054,5.72727 -0.65719,8.09502 0.86866,1.73671 0.68909,3.84381 1.85599,5.4986 0.68647,1.65384 2.49428,2.19781 4.14063,2.03762 0.51155,0.65742 -0.38255,1.83678 0.15918,2.6532 0.7896,2.35227 4.08208,2.47431 4.66109,4.9722 0.86759,1.66914 3.19187,1.17393 4.73772,1.57725 0.92854,-0.0183 2.1002,-0.22215 2.19219,1.09444 1.75461,3.85456 6.80187,5.25044 10.4589,3.2886 4.38839,-1.66926 9.13093,-2.46577 13.79207,-3.04073 3.32186,-0.062 6.75829,-0.50443 10.01937,0.19466 2.88,2.30756 6.35567,4.28812 10.19802,3.83152 1.91455,0.21608 3.63333,-0.6219 5.447094,-0.92337 1.61327,-0.10808 3.49389,0.91097 4.47843,-0.92346 1.42484,-1.09685 2.75649,-3.04053 4.70309,-3.0646 1.33375,0.77213 2.8614,0.9728 4.28989,1.37383 1.999,1.39831 4.25239,2.47744 6.23374,3.94182 2.5451,1.21098 5.16566,2.40063 7.88562,3.12942 1.82741,0.14961 4.05483,-0.48452 5.19055,1.44945 1.75798,2.06552 4.61802,0.26003 6.60256,-0.44814 2.67217,-1.03283 5.97345,0.003 8.25154,-2.17435 3.9942,-3.53796 6.56273,-8.82832 6.31102,-14.2105 1.40009,-4.05165 1.16046,-8.45223 2.16575,-12.60882 0.95747,-4.79699 -0.74564,-9.64845 -2.73906,-13.94565 -0.20858,-0.72086 -1.04422,-0.91159 -1.47026,-1.21002 1.4838,-3.16674 -0.24589,-6.63102 -0.32245,-9.91477 -0.48536,-4.90173 -1.26387,-9.99953 -4.12452,-14.13345 -2.00171,-3.80434 -3.24841,-8.11486 -5.9056,-11.53188 -1.48429,-1.46593 -4.19456,-1.98456 -4.35067,-4.45041 -0.50828,-3.0775 -1.84237,-6.72713 -5.13204,-7.70002 -1.88939,-0.70546 -2.90271,-2.74333 -4.64336,-3.75484 -3.74735,-2.87308 -7.44308,-5.83781 -10.68272,-9.2747 -2.36218,-2.02524 -5.74335,-0.76422 -8.33145,-2.29456 -1.9972,-0.49647 -4.23119,-2.41655 -6.30573,-1.33023 -0.95615,0.40039 -0.82647,2.3566 -2.16444,1.63207 -2.471224,-0.16351 -2.487794,-3.23335 -4.490694,-4.14657 -1.02308,-0.62569 -2.23014,-0.9458 -3.42862,-0.91414 z"
         style="display:inline;fill:url(#linearGradient39997);fill-opacity:1;stroke:#000000;stroke-width:2;stroke-miterlimit:4;stroke-dasharray:none" />
      <path
         id="path11896-1-8-2-3"
         d="m -107.78101,419.44266 c -2.1469,0.23006 -3.5626,-2.24195 -5.73385,-1.42865 -3.82865,0.33625 -7.90693,0.32101 -11.5453,-1.02773 -0.95522,-0.40005 -1.91882,-1.81185 -2.8725,-0.57398 -1.62963,1.60673 -4.1129,0.11125 -6.13367,0.28759 -3.5668,-0.23948 -7.23619,-0.61656 -10.28887,-2.66474 -1.9808,-1.67647 -4.34285,0.5269 -6.61744,-0.15715 -3.24201,-0.45578 -6.59401,-1.44535 -8.8333,-3.96084 -1.37345,-1.0235 -2.80793,-2.21927 -4.61631,-1.99615 -2.7154,-0.62175 -5.56878,-2.22826 -6.47019,-5.02173 -2.59454,-0.6796 -5.17057,-1.59945 -7.08182,-3.56533 -1.55248,-1.02997 -3.22564,-2.29179 -4.10694,-3.959 0.0126,-1.32573 0.60077,-2.98032 -0.93065,-3.75424 -1.32731,-1.25 -3.53303,-1.03287 -4.41077,-2.8639 -2.57525,-3.53187 -4.27048,-7.66673 -5.50455,-11.81293 -2.42836,-3.07468 -1.53184,-7.27699 -2.0235,-10.89676 0.11968,-2.0955 -0.98558,-4.89942 1.24609,-6.27275 1.83915,-0.83166 3.26139,-2.24704 4.1532,-4.066 1.97204,-3.28781 4.02274,-7.50538 8.25484,-8.15577 3.12522,-1.12595 6.55838,-2.15124 9.85521,-1.18228 1.89331,-0.48817 3.64231,-1.55723 5.58249,-1.9696 0.73947,-0.59783 -0.76551,-1.56106 -0.94781,-2.18357 -2.23559,-2.04334 -2.51054,-5.72727 -0.65719,-8.09502 0.86866,-1.73671 0.68909,-3.84381 1.85599,-5.4986 0.68647,-1.65384 2.49428,-2.19781 4.14063,-2.03762 0.51155,-0.65742 -0.38255,-1.83678 0.15918,-2.6532 0.7896,-2.35227 4.08208,-2.47431 4.66109,-4.9722 0.86759,-1.66914 3.19187,-1.17393 4.73772,-1.57725 0.92854,0.0183 2.1002,0.22215 2.19219,-1.09444 1.75461,-3.85456 6.80187,-5.25044 10.4589,-3.2886 4.38839,1.66926 9.13093,2.46577 13.79207,3.04073 3.32186,0.062 6.75829,0.50443 10.01937,-0.19466 2.88,-2.30756 6.35567,-4.28812 10.19802,-3.83152 1.91455,-0.21608 3.63333,0.6219 5.447094,0.92337 1.61327,0.10808 3.49389,-0.91097 4.47843,0.92346 1.42484,1.09685 2.75649,3.04053 4.70309,3.0646 1.33375,-0.77213 2.8614,-0.9728 4.28989,-1.37383 1.999,-1.39831 4.25239,-2.47744 6.23374,-3.94182 2.5451,-1.21098 5.16566,-2.40063 7.88562,-3.12942 1.82741,-0.14961 4.05483,0.48452 5.19055,-1.44945 1.75798,-2.06552 4.61802,-0.26003 6.60256,0.44814 2.67217,1.03283 5.97345,-0.003 8.25154,2.17435 3.9942,3.53796 6.56273,8.82832 6.31102,14.2105 1.40009,4.05165 1.16046,8.45223 2.16575,12.60882 0.95747,4.79699 -0.74564,9.64845 -2.73906,13.94565 -0.20858,0.72086 -1.04422,0.91159 -1.47026,1.21002 1.4838,3.16674 -0.24589,6.63102 -0.32245,9.91477 -0.48536,4.90173 -1.26387,9.99953 -4.12452,14.13345 -2.00171,3.80434 -3.24841,8.11486 -5.9056,11.53188 -1.48429,1.46593 -4.19456,1.98456 -4.35067,4.45041 -0.50828,3.0775 -1.84237,6.72713 -5.13204,7.70002 -1.88939,0.70546 -2.90271,2.74333 -4.64336,3.75484 -3.74735,2.87308 -7.44308,5.83781 -10.68272,9.2747 -2.36218,2.02524 -5.74335,0.76422 -8.33145,2.29456 -1.9972,0.49647 -4.23119,2.41655 -6.30573,1.33023 -0.95615,-0.40039 -0.82647,-2.3566 -2.16444,-1.63207 -2.471224,0.16351 -2.487794,3.23335 -4.490694,4.14657 -1.02308,0.62569 -2.23014,0.9458 -3.42862,0.91414 z"
         style="display:inline;fill:url(#linearGradient39999);fill-opacity:1;stroke:#000000;stroke-width:2;stroke-miterlimit:4;stroke-dasharray:none" />
      <text
         xml:space="preserve"
         style="font-size:24px;line-height:1.25;font-family:Helvetica;-inkscape-font-specification:Helvetica"
         x="-197.50351"
         y="302.69345"
         id="text3751-1-4"><tspan
           sodipodi:role="line"
           id="tspan3749-80-2"
           x="-197.50351"
           y="302.69345">b</tspan></text>
    </g>
    <g
       id="g40157"
       transform="translate(12.766556)"
       inkscape:export-filename="/Users/kohler/Desktop/g40169.png"
       inkscape:export-xdpi="300"
       inkscape:export-ydpi="300">
      <path
         id="path11896-1-8-4-8"
         d="m 63.454949,180.7411 c -2.1469,-0.23006 -3.5626,2.24195 -5.73385,1.42865 -3.82865,-0.33625 -7.90693,-0.32101 -11.5453,1.02773 -0.95522,0.40005 -1.918819,1.81185 -2.872499,0.57398 -1.62963,-1.60673 -4.11291,-0.11125 -6.13368,-0.28759 -3.5668,0.23948 -7.23618,0.61656 -10.28887,2.66474 -1.9808,1.67647 -4.34285,-0.5269 -6.61743,0.15715 -3.24202,0.45578 -6.59401,1.44535 -8.83331,3.96084 -1.37345,1.0235 -2.80793,2.21927 -4.61631,1.99615 -2.7154,0.62175 -5.56878,2.22826 -6.47019,5.02173 -2.59454,0.6796 -5.17057,1.59945 -7.08182,3.56533 -1.55248,1.02997 -3.22564,2.29179 -4.10694,3.959 0.0126,1.32573 0.60078,2.98032 -0.93064,3.75424 -1.32731,1.25 -3.53303,1.03287 -4.41077,2.8639 -2.57525,3.53187 -4.27048,7.66673 -5.50455,11.81293 -2.42836,3.07468 -1.53184,7.27699 -2.0235,10.89676 0.11968,2.0955 -0.98558,4.89942 1.24609,6.27275 1.83915,0.83166 3.26139,2.24704 4.1532,4.066 1.97204,3.28781 4.02274,7.50538 8.25484,8.15577 3.12522,1.12595 6.55838,2.15124 9.85521,1.18228 1.89331,0.48817 3.64231,1.55723 5.58249,1.9696 0.73947,0.59783 -0.76551,1.56106 -0.94781,2.18357 -2.23559,2.04334 -2.51054,5.72727 -0.65719,8.09502 0.86866,1.73671 0.68909,3.84381 1.85599,5.4986 0.68647,1.65384 2.49428,2.19781 4.14063,2.03762 0.51155,0.65742 -0.38255,1.83678 0.15918,2.6532 0.7896,2.35227 4.08208,2.47431 4.66109,4.9722 0.86759,1.66914 3.19187,1.17393 4.73772,1.57725 0.92854,-0.0183 2.1002,-0.22215 2.19219,1.09444 1.75461,3.85456 6.80187,5.25044 10.4589,3.2886 4.38839,-1.66926 9.13093,-2.46577 13.792069,-3.04073 3.32186,-0.062 6.75829,-0.50443 10.01937,0.19466 2.88,2.30756 6.35567,4.28812 10.19802,3.83152 1.91455,0.21608 3.63333,-0.6219 5.44709,-0.92337 1.61327,-0.10808 3.49389,0.91097 4.47843,-0.92346 1.42484,-1.09685 2.75649,-3.04053 4.70309,-3.0646 1.33375,0.77213 2.8614,0.9728 4.28989,1.37383 1.999,1.39831 4.25239,2.47744 6.23374,3.94182 2.5451,1.21098 5.16566,2.40063 7.88562,3.12942 1.827411,0.14961 4.054831,-0.48452 5.190551,1.44945 1.75798,2.06552 4.61802,0.26003 6.60256,-0.44814 2.67217,-1.03283 5.97345,0.003 8.25154,-2.17435 3.9942,-3.53796 6.56273,-8.82832 6.31102,-14.2105 1.40009,-4.05165 1.16046,-8.45223 2.16575,-12.60882 0.95747,-4.79699 -0.74564,-9.64845 -2.73906,-13.94565 -0.20858,-0.72086 -1.04422,-0.91159 -1.47026,-1.21002 1.4838,-3.16674 -0.24589,-6.63102 -0.32245,-9.91477 -0.48536,-4.90173 -1.26387,-9.99953 -4.12452,-14.13345 -2.00171,-3.80434 -3.24841,-8.11486 -5.9056,-11.53188 -1.48429,-1.46593 -4.19456,-1.98456 -4.35067,-4.45041 -0.50828,-3.0775 -1.84237,-6.72713 -5.13204,-7.70002 -1.88939,-0.70546 -2.90271,-2.74333 -4.643361,-3.75484 -3.74735,-2.87308 -7.44308,-5.83781 -10.68272,-9.2747 -2.36218,-2.02524 -5.74335,-0.76422 -8.33145,-2.29456 -1.9972,-0.49647 -4.23119,-2.41655 -6.30573,-1.33023 -0.95615,0.40039 -0.82647,2.3566 -2.16444,1.63207 -2.47122,-0.16351 -2.48779,-3.23335 -4.49069,-4.14657 -1.02308,-0.62569 -2.23014,-0.9458 -3.42862,-0.91414 z"
         style="display:inline;fill:url(#linearGradient40063);fill-opacity:1;stroke:#000000;stroke-width:2;stroke-miterlimit:4;stroke-dasharray:none" />
      <path
         id="path11896-1-8-2-3-1"
         d="m 40.481271,419.46334 c 2.1469,0.23006 3.5626,-2.24195 5.73385,-1.42865 3.82865,0.33625 7.90693,0.32101 11.5453,-1.02773 0.95522,-0.40005 1.918819,-1.81185 2.872499,-0.57398 1.62963,1.60673 4.11291,0.11125 6.13368,0.28759 3.5668,-0.23948 7.23618,-0.61656 10.28887,-2.66474 1.9808,-1.67647 4.34285,0.5269 6.61743,-0.15715 3.24202,-0.45578 6.59401,-1.44535 8.83331,-3.96084 1.37345,-1.0235 2.80793,-2.21927 4.61631,-1.99615 2.7154,-0.62175 5.56878,-2.22826 6.47019,-5.02173 2.59454,-0.6796 5.17057,-1.59945 7.08182,-3.56533 1.55248,-1.02997 3.22564,-2.29179 4.10694,-3.959 -0.0126,-1.32573 -0.60078,-2.98032 0.93064,-3.75424 1.32731,-1.25 3.53303,-1.03287 4.41077,-2.8639 2.57525,-3.53187 4.27048,-7.66673 5.50455,-11.81293 2.42836,-3.07468 1.53184,-7.27699 2.0235,-10.89676 -0.11968,-2.0955 0.98558,-4.89942 -1.24609,-6.27275 -1.83915,-0.83166 -3.26139,-2.24704 -4.1532,-4.066 -1.97204,-3.28781 -4.02274,-7.50538 -8.25484,-8.15577 -3.12522,-1.12595 -6.55838,-2.15124 -9.85521,-1.18228 -1.89331,-0.48817 -3.64231,-1.55723 -5.58249,-1.9696 -0.73947,-0.59783 0.76551,-1.56106 0.94781,-2.18357 2.23559,-2.04334 2.51054,-5.72727 0.65719,-8.09502 -0.86866,-1.73671 -0.68909,-3.84381 -1.85599,-5.4986 -0.68647,-1.65384 -2.49428,-2.19781 -4.14063,-2.03762 -0.51155,-0.65742 0.38255,-1.83678 -0.15918,-2.6532 -0.7896,-2.35227 -4.08208,-2.47431 -4.66109,-4.9722 -0.86759,-1.66914 -3.19187,-1.17393 -4.73772,-1.57725 -0.92854,0.0183 -2.1002,0.22215 -2.19219,-1.09444 -1.75461,-3.85456 -6.80187,-5.25044 -10.4589,-3.2886 -4.38839,1.66926 -9.13093,2.46577 -13.792069,3.04073 -3.32186,0.062 -6.75829,0.50443 -10.01937,-0.19466 -2.88,-2.30756 -6.35567,-4.28812 -10.19802,-3.83152 -1.91455,-0.21608 -3.63333,0.6219 -5.44709,0.92337 -1.61327,0.10808 -3.49389,-0.91097 -4.47843,0.92346 -1.42484,1.09685 -2.75649,3.04053 -4.70309,3.0646 -1.33375,-0.77213 -2.8614,-0.9728 -4.28989,-1.37383 -1.999,-1.39831 -4.25239,-2.47744 -6.23374,-3.94182 -2.5451,-1.21098 -5.1656605,-2.40063 -7.8856205,-3.12942 -1.827411,-0.14961 -4.05483099,0.48452 -5.19055099,-1.44945 -1.75798001,-2.06552 -4.61802001,-0.26003 -6.60256001,0.44814 -2.67217,1.03283 -5.9734495,-0.003 -8.2515395,2.17435 -3.9942,3.53796 -6.56273,8.82832 -6.31102,14.2105 -1.40009,4.05165 -1.16046,8.45223 -2.16575,12.60882 -0.95747,4.79699 0.74564,9.64845 2.73906,13.94565 0.20858,0.72086 1.04422,0.91159 1.47026,1.21002 -1.4838,3.16674 0.24589,6.63102 0.32245,9.91477 0.48536,4.90173 1.26387,9.99953 4.12452,14.13345 2.00171,3.80434 3.24841,8.11486 5.9055995,11.53188 1.48429,1.46593 4.19456,1.98456 4.35067,4.45041 0.50828,3.0775 1.84237,6.72713 5.13204001,7.70002 1.88938999,0.70546 2.90270999,2.74333 4.64336099,3.75484 3.74735,2.87308 7.4430805,5.83781 10.6827205,9.2747 2.36218,2.02524 5.74335,0.76422 8.33145,2.29456 1.9972,0.49647 4.23119,2.41655 6.30573,1.33023 0.95615,-0.40039 0.82647,-2.3566 2.16444,-1.63207 2.47122,0.16351 2.48779,3.23335 4.49069,4.14657 1.02308,0.62569 2.23014,0.9458 3.42862,0.91414 z"
         style="display:inline;fill:url(#linearGradient40065);fill-opacity:1;stroke:#000000;stroke-width:2;stroke-miterlimit:4;stroke-dasharray:none" />
      <text
         xml:space="preserve"
         style="font-size:24px;line-height:1.25;font-family:Helvetica;-inkscape-font-specification:Helvetica"
         x="-25.576141"
         y="302.72861"
         id="text3751-1-4-2"><tspan
           sodipodi:role="line"
           id="tspan3749-80-2-6"
           x="-25.576141"
           y="302.72861">c</tspan></text>
    </g>
    <g
       id="g40151"
       transform="translate(20.000031)"
       inkscape:export-filename="/Users/kohler/Desktop/g40169.png"
       inkscape:export-xdpi="300"
       inkscape:export-ydpi="300">
      <path
         id="path11896-1-8-4-8-1"
         d="m 235.68698,180.7411 c -2.1469,-0.23006 -3.5626,2.24195 -5.73385,1.42865 -3.82865,-0.33625 -7.90693,-0.32101 -11.5453,1.02773 -0.95522,0.40005 -1.91882,1.81185 -2.8725,0.57398 -1.62963,-1.60673 -4.11291,-0.11125 -6.13368,-0.28759 -3.5668,0.23948 -7.23618,0.61656 -10.28887,2.66474 -1.9808,1.67647 -4.34285,-0.5269 -6.61743,0.15715 -3.24202,0.45578 -6.59401,1.44535 -8.83331,3.96084 -1.37345,1.0235 -2.80793,2.21927 -4.61631,1.99615 -2.7154,0.62175 -5.56878,2.22826 -6.47019,5.02173 -2.59454,0.6796 -5.17057,1.59945 -7.08182,3.56533 -1.55248,1.02997 -3.22564,2.29179 -4.10694,3.959 0.0126,1.32573 0.60078,2.98032 -0.93064,3.75424 -1.32731,1.25 -3.53303,1.03287 -4.41077,2.8639 -2.57525,3.53187 -4.27048,7.66673 -5.50455,11.81293 -2.42836,3.07468 -1.53184,7.27699 -2.0235,10.89676 0.11968,2.0955 -0.98558,4.89942 1.24609,6.27275 1.83915,0.83166 3.26139,2.24704 4.1532,4.066 1.97204,3.28781 4.02274,7.50538 8.25484,8.15577 3.12522,1.12595 6.55838,2.15124 9.85521,1.18228 1.89331,0.48817 3.64231,1.55723 5.58249,1.9696 0.73947,0.59783 -0.76551,1.56106 -0.94781,2.18357 -2.23559,2.04334 -2.51054,5.72727 -0.65719,8.09502 0.86866,1.73671 0.68909,3.84381 1.85599,5.4986 0.68647,1.65384 2.49428,2.19781 4.14063,2.03762 0.51155,0.65742 -0.38255,1.83678 0.15918,2.6532 0.7896,2.35227 4.08208,2.47431 4.66109,4.9722 0.86759,1.66914 3.19187,1.17393 4.73772,1.57725 0.92854,-0.0183 2.1002,-0.22215 2.19219,1.09444 1.75461,3.85456 6.80187,5.25044 10.4589,3.2886 4.38839,-1.66926 9.13093,-2.46577 13.79207,-3.04073 3.32186,-0.062 6.75829,-0.50443 10.01937,0.19466 2.88,2.30756 6.35567,4.28812 10.19802,3.83152 1.91455,0.21608 3.63333,-0.6219 5.44709,-0.92337 1.61327,-0.10808 3.49389,0.91097 4.47843,-0.92346 1.42484,-1.09685 2.75649,-3.04053 4.70309,-3.0646 1.33375,0.77213 2.8614,0.9728 4.28989,1.37383 1.999,1.39831 4.25239,2.47744 6.23374,3.94182 2.5451,1.21098 5.16566,2.40063 7.88562,3.12942 1.82741,0.14961 4.05483,-0.48452 5.19055,1.44945 1.75798,2.06552 4.61802,0.26003 6.60256,-0.44814 2.67217,-1.03283 5.97345,0.003 8.25154,-2.17435 3.9942,-3.53796 6.56273,-8.82832 6.31102,-14.2105 1.40009,-4.05165 1.16046,-8.45223 2.16575,-12.60882 0.95747,-4.79699 -0.74564,-9.64845 -2.73906,-13.94565 -0.20858,-0.72086 -1.04422,-0.91159 -1.47026,-1.21002 1.4838,-3.16674 -0.24589,-6.63102 -0.32245,-9.91477 -0.48536,-4.90173 -1.26387,-9.99953 -4.12452,-14.13345 -2.00171,-3.80434 -3.24841,-8.11486 -5.9056,-11.53188 -1.48429,-1.46593 -4.19456,-1.98456 -4.35067,-4.45041 -0.50828,-3.0775 -1.84237,-6.72713 -5.13204,-7.70002 -1.88939,-0.70546 -2.90271,-2.74333 -4.64336,-3.75484 -3.74735,-2.87308 -7.44308,-5.83781 -10.68272,-9.2747 -2.36218,-2.02524 -5.74335,-0.76422 -8.33145,-2.29456 -1.9972,-0.49647 -4.23119,-2.41655 -6.30573,-1.33023 -0.95615,0.40039 -0.82647,2.3566 -2.16444,1.63207 -2.47122,-0.16351 -2.48779,-3.23335 -4.49069,-4.14657 -1.02308,-0.62569 -2.23014,-0.9458 -3.42862,-0.91414 z"
         style="display:inline;fill:url(#linearGradient40126);fill-opacity:1;stroke:#000000;stroke-width:2;stroke-miterlimit:4;stroke-dasharray:none" />
      <path
         id="path11896-1-8-2-3-1-7"
         d="m 315.68698,419.44266 c -2.1469,0.23006 -3.5626,-2.24195 -5.73385,-1.42865 -3.82865,0.33625 -7.90693,0.32101 -11.5453,-1.02773 -0.95522,-0.40005 -1.91882,-1.81185 -2.8725,-0.57398 -1.62963,1.60673 -4.11291,0.11125 -6.13368,0.28759 -3.5668,-0.23948 -7.23618,-0.61656 -10.28887,-2.66474 -1.9808,-1.67647 -4.34285,0.5269 -6.61743,-0.15715 -3.24202,-0.45578 -6.59401,-1.44535 -8.83331,-3.96084 -1.37345,-1.0235 -2.80793,-2.21927 -4.61631,-1.99615 -2.7154,-0.62175 -5.56878,-2.22826 -6.47019,-5.02173 -2.59454,-0.6796 -5.17057,-1.59945 -7.08182,-3.56533 -1.55248,-1.02997 -3.22564,-2.29179 -4.10694,-3.959 0.0126,-1.32573 0.60078,-2.98032 -0.93064,-3.75424 -1.32731,-1.25 -3.53303,-1.03287 -4.41077,-2.8639 -2.57525,-3.53187 -4.27048,-7.66673 -5.50455,-11.81293 -2.42836,-3.07468 -1.53184,-7.27699 -2.0235,-10.89676 0.11968,-2.0955 -0.98558,-4.89942 1.24609,-6.27275 1.83915,-0.83166 3.26139,-2.24704 4.1532,-4.066 1.97204,-3.28781 4.02274,-7.50538 8.25484,-8.15577 3.12522,-1.12595 6.55838,-2.15124 9.85521,-1.18228 1.89331,-0.48817 3.64231,-1.55723 5.58249,-1.9696 0.73947,-0.59783 -0.76551,-1.56106 -0.94781,-2.18357 -2.23559,-2.04334 -2.51054,-5.72727 -0.65719,-8.09502 0.86866,-1.73671 0.68909,-3.84381 1.85599,-5.4986 0.68647,-1.65384 2.49428,-2.19781 4.14063,-2.03762 0.51155,-0.65742 -0.38255,-1.83678 0.15918,-2.6532 0.7896,-2.35227 4.08208,-2.47431 4.66109,-4.9722 0.86759,-1.66914 3.19187,-1.17393 4.73772,-1.57725 0.92854,0.0183 2.1002,0.22215 2.19219,-1.09444 1.75461,-3.85456 6.80187,-5.25044 10.4589,-3.2886 4.38839,1.66926 9.13093,2.46577 13.79207,3.04073 3.32186,0.062 6.75829,0.50443 10.01937,-0.19466 2.88,-2.30756 6.35567,-4.28812 10.19802,-3.83152 1.91455,-0.21608 3.63333,0.6219 5.44709,0.92337 1.61327,0.10808 3.49389,-0.91097 4.47843,0.92346 1.42484,1.09685 2.75649,3.04053 4.70309,3.0646 1.33375,-0.77213 2.8614,-0.9728 4.28989,-1.37383 1.999,-1.39831 4.25239,-2.47744 6.23374,-3.94182 2.5451,-1.21098 5.16566,-2.40063 7.88562,-3.12942 1.82741,-0.14961 4.05483,0.48452 5.19055,-1.44945 1.75798,-2.06552 4.61802,-0.26003 6.60256,0.44814 2.67217,1.03283 5.97345,-0.003 8.25154,2.17435 3.9942,3.53796 6.56273,8.82832 6.31102,14.2105 1.40009,4.05165 1.16046,8.45223 2.16575,12.60882 0.95747,4.79699 -0.74564,9.64845 -2.73906,13.94565 -0.20858,0.72086 -1.04422,0.91159 -1.47026,1.21002 1.4838,3.16674 -0.24589,6.63102 -0.32245,9.91477 -0.48536,4.90173 -1.26387,9.99953 -4.12452,14.13345 -2.00171,3.80434 -3.24841,8.11486 -5.9056,11.53188 -1.48429,1.46593 -4.19456,1.98456 -4.35067,4.45041 -0.50828,3.0775 -1.84237,6.72713 -5.13204,7.70002 -1.88939,0.70546 -2.90271,2.74333 -4.64336,3.75484 -3.74735,2.87308 -7.44308,5.83781 -10.68272,9.2747 -2.36218,2.02524 -5.74335,0.76422 -8.33145,2.29456 -1.9972,0.49647 -4.23119,2.41655 -6.30573,1.33023 -0.95615,-0.40039 -0.82647,-2.3566 -2.16444,-1.63207 -2.47122,0.16351 -2.48779,3.23335 -4.49069,4.14657 -1.02308,0.62569 -2.23014,0.9458 -3.42862,0.91414 z"
         style="display:inline;fill:url(#linearGradient40128);fill-opacity:1;stroke:#000000;stroke-width:2;stroke-miterlimit:4;stroke-dasharray:none" />
      <text
         xml:space="preserve"
         style="font-size:24px;line-height:1.25;font-family:Helvetica;-inkscape-font-specification:Helvetica"
         x="146.69104"
         y="302.64658"
         id="text3751-1-4-2-7"><tspan
           sodipodi:role="line"
           id="tspan3749-80-2-6-1"
           x="146.69104"
           y="302.64658">d</tspan></text>
    </g>
  </g>
</svg>
